<svg xmlns="http://www.w3.org/2000/svg" width="32" height="32" fill="none" viewBox="0 0 32 32">
  <path fill="#263238" d="M16 27a1 1 0 0 1-1-1v-3a1 1 0 0 1 2 0v3a1 1 0 0 1-1 1Z"/>
  <path fill="#0277BD" d="M27 13a11 11 0 0 1-11 11 10.908 10.908 0 0 1-4.93-1.18A11 11 0 0 1 5 13v-.4a10.56 10.56 0 0 1 .44-2.6A11 11 0 0 1 27 13Z"/>
  <path fill="#263238" d="m22.93 28.63-1.2-3a1 1 0 0 0-.93-.63h-9.6a1 1 0 0 0-.93.63l-1.2 3A1 1 0 0 0 10 30h12a1 1 0 0 0 .93-1.37Z"/>
  <path fill="#7CB342" d="M12.84 21.55a.999.999 0 0 1-.29.28l-1.48 1A11 11 0 0 1 5 13v-.4a10.56 10.56 0 0 1 .44-2.6 23.233 23.233 0 0 1 4.33-2 3.26 3.26 0 0 1 2.82.16c1.44 1.06 1.32 3.7.25 5.35a4.73 4.73 0 0 1-1.31 1.33 4 4 0 0 1 2.34 1.64c.7 1.28.36 2.92-1.03 5.07Z"/>
  <path fill="#558B2F" d="M27.348 13.854a11.103 11.103 0 0 1-1.07 4.75l-.93-.08-.23-.05c-2.34-.78-4.83-2.62-5.08-4.62-.26-2.19.78-4.86 4.47-5.82a1.06 1.06 0 0 1 .53 0l.78.23a11 11 0 0 1 1.53 5.59Z"/>
  <path fill="#455A64" d="M15 23v3a1 1 0 0 0 1 1v-5a1 1 0 0 0-1 1Z"/>
  <path fill="#039BE5" d="M5.44 9.94A10.56 10.56 0 0 0 5 12.6v.4a11 11 0 0 0 6.07 9.82A10.908 10.908 0 0 0 16 24V2A11 11 0 0 0 5.44 9.94Z"/>
  <path fill="#455A64" d="M11.2 25a1 1 0 0 0-.93.63l-1.2 3A1 1 0 0 0 10 30h6v-5h-4.8Z"/>
  <path fill="#7CB342" d="M12.84 21.55a.999.999 0 0 1-.29.28l-1.48 1A11 11 0 0 1 5 13v-.4a10.56 10.56 0 0 1 .44-2.6 23.233 23.233 0 0 1 4.33-2 3.26 3.26 0 0 1 2.82.16c1.44 1.06 1.32 3.7.25 5.35a4.73 4.73 0 0 1-1.31 1.33 4 4 0 0 1 2.34 1.64c.7 1.28.36 2.92-1.03 5.07Z"/>
</svg>
